<?xml version="1.0" encoding="UTF-8" standalone="no"?>
<!-- Created with Inkscape (http://www.inkscape.org/) -->

<svg
   width="100mm"
   height="100mm"
   viewBox="0 0 100 100"
   version="1.1"
   id="svg1"
   xml:space="preserve"
   inkscape:version="1.4.2 (f4327f4, 2025-05-13)"
   sodipodi:docname="logo.svg"
   inkscape:export-filename="logo.png"
   inkscape:export-xdpi="130.048"
   inkscape:export-ydpi="130.048"
   xmlns:inkscape="http://www.inkscape.org/namespaces/inkscape"
   xmlns:sodipodi="http://sodipodi.sourceforge.net/DTD/sodipodi-0.dtd"
   xmlns="http://www.w3.org/2000/svg"
   xmlns:svg="http://www.w3.org/2000/svg"><sodipodi:namedview
     id="namedview1"
     pagecolor="#ffffff"
     bordercolor="#000000"
     borderopacity="0.25"
     inkscape:showpageshadow="2"
     inkscape:pageopacity="0.0"
     inkscape:pagecheckerboard="0"
     inkscape:deskcolor="#d1d1d1"
     inkscape:document-units="mm"
     inkscape:zoom="1.4142136"
     inkscape:cx="193.04015"
     inkscape:cy="244.30539"
     inkscape:window-width="1920"
     inkscape:window-height="1009"
     inkscape:window-x="1592"
     inkscape:window-y="-8"
     inkscape:window-maximized="1"
     inkscape:current-layer="layer1" /><defs
     id="defs1"><inkscape:path-effect
       effect="fillet_chamfer"
       id="path-effect57"
       is_visible="true"
       lpeversion="1"
       nodesatellites_param="F,0,0,1,0,0,0,1 @ F,0,0,1,0,0,0,1 @ F,0,0,1,0,0,0,1 @ F,0,0,1,0,0,0,1 @ F,0,0,1,0,0,0,1 @ F,0,0,1,0,0,0,1 @ F,0,0,1,0,0.61919214,0,1 @ F,0,0,1,0,0.53312822,0,1"
       radius="0"
       unit="px"
       method="auto"
       mode="F"
       chamfer_steps="1"
       flexible="false"
       use_knot_distance="true"
       apply_no_radius="true"
       apply_with_radius="true"
       only_selected="false"
       hide_knots="false" /><inkscape:path-effect
       effect="fillet_chamfer"
       id="path-effect55"
       is_visible="true"
       lpeversion="1"
       nodesatellites_param="F,0,0,1,0,2,0,1 @ F,0,0,1,0,2,0,1 @ F,0,0,1,0,2,0,1"
       radius="0"
       unit="px"
       method="auto"
       mode="F"
       chamfer_steps="1"
       flexible="false"
       use_knot_distance="true"
       apply_no_radius="true"
       apply_with_radius="true"
       only_selected="false"
       hide_knots="false" /><inkscape:path-effect
       effect="fillet_chamfer"
       id="path-effect53"
       is_visible="true"
       lpeversion="1"
       nodesatellites_param="F,0,0,1,0,0,0,1 @ F,0,0,1,0,0,0,1 @ F,0,0,1,0,0,0,1 @ F,0,0,1,0,0,0,1 @ F,0,0,1,0,0,0,1 @ F,0,0,1,0,0,0,1 @ F,0,0,1,0,0.61919214,0,1 @ F,0,0,1,0,0.53312822,0,1"
       radius="0"
       unit="px"
       method="auto"
       mode="F"
       chamfer_steps="1"
       flexible="false"
       use_knot_distance="true"
       apply_no_radius="true"
       apply_with_radius="true"
       only_selected="false"
       hide_knots="false" /><inkscape:path-effect
       effect="fillet_chamfer"
       id="path-effect51"
       is_visible="true"
       lpeversion="1"
       nodesatellites_param="F,0,0,1,0,0,0,1 @ F,0,0,1,0,0,0,1 @ F,0,0,1,0,0,0,1 @ F,0,0,1,0,0,0,1 @ F,0,0,1,0,0,0,1 @ F,0,0,1,0,0,0,1 @ F,0,0,1,0,0.61919214,0,1 @ F,0,0,1,0,0.53312822,0,1"
       radius="0"
       unit="px"
       method="auto"
       mode="F"
       chamfer_steps="1"
       flexible="false"
       use_knot_distance="true"
       apply_no_radius="true"
       apply_with_radius="true"
       only_selected="false"
       hide_knots="false" /><inkscape:path-effect
       effect="fillet_chamfer"
       id="path-effect49"
       is_visible="true"
       lpeversion="1"
       nodesatellites_param="F,0,0,1,0,0,0,1 @ F,0,0,1,0,0,0,1 @ F,0,0,1,0,0,0,1 @ F,0,0,1,0,0,0,1 @ F,0,0,1,0,0.28497839,0,1 @ F,0,0,1,0,0,0,1 @ F,0,0,1,0,0,0,1 @ F,0,0,1,0,0.23002928,0,1 @ F,0,0,1,0,0,0,1 @ F,0,0,1,0,0,0,1 @ F,0,0,1,0,0,0,1 @ F,0,0,1,0,0,0,1"
       radius="0"
       unit="px"
       method="auto"
       mode="F"
       chamfer_steps="1"
       flexible="false"
       use_knot_distance="true"
       apply_no_radius="true"
       apply_with_radius="true"
       only_selected="false"
       hide_knots="false" /><inkscape:path-effect
       effect="fillet_chamfer"
       id="path-effect47"
       is_visible="true"
       lpeversion="1"
       nodesatellites_param="F,0,0,1,0,0,0,1 @ F,0,0,1,0,0,0,1 @ F,0,0,1,0,0,0,1 @ F,0,0,1,0,0,0,1 @ F,0,0,1,0,0,0,1 @ F,0,0,1,0,0,0,1 @ F,0,0,1,0,0.61919214,0,1 @ F,0,0,1,0,0.53312822,0,1"
       radius="0"
       unit="px"
       method="auto"
       mode="F"
       chamfer_steps="1"
       flexible="false"
       use_knot_distance="true"
       apply_no_radius="true"
       apply_with_radius="true"
       only_selected="false"
       hide_knots="false" /><inkscape:path-effect
       effect="fillet_chamfer"
       id="path-effect20"
       is_visible="true"
       lpeversion="1"
       nodesatellites_param="F,0,0,1,0,0,0,1 @ F,0,0,1,0,0,0,1 @ F,0,0,1,0,0,0,1 @ F,0,0,1,0,0,0,1 @ F,0,0,1,0,0,0,1 @ F,0,0,1,0,0,0,1 @ F,0,0,1,0,0.61919214,0,1 @ F,0,0,1,0,0.53312822,0,1"
       radius="0"
       unit="px"
       method="auto"
       mode="F"
       chamfer_steps="1"
       flexible="false"
       use_knot_distance="true"
       apply_no_radius="true"
       apply_with_radius="true"
       only_selected="false"
       hide_knots="false" /><inkscape:path-effect
       effect="fillet_chamfer"
       id="path-effect18"
       is_visible="true"
       lpeversion="1"
       nodesatellites_param="F,0,0,1,0,0,0,1 @ F,0,0,1,0,0,0,1 @ F,0,0,1,0,0,0,1 @ F,0,0,1,0,0,0,1 @ F,0,0,1,0,0,0,1 @ F,0,0,1,0,0,0,1 @ F,0,0,1,0,0.61919214,0,1 @ F,0,0,1,0,0.53312822,0,1"
       radius="0"
       unit="px"
       method="auto"
       mode="F"
       chamfer_steps="1"
       flexible="false"
       use_knot_distance="true"
       apply_no_radius="true"
       apply_with_radius="true"
       only_selected="false"
       hide_knots="false" /><inkscape:path-effect
       effect="fillet_chamfer"
       id="path-effect16"
       is_visible="true"
       lpeversion="1"
       nodesatellites_param="F,0,0,1,0,2,0,1 @ F,0,0,1,0,2,0,1 @ F,0,0,1,0,2,0,1"
       radius="0"
       unit="px"
       method="auto"
       mode="F"
       chamfer_steps="1"
       flexible="false"
       use_knot_distance="true"
       apply_no_radius="true"
       apply_with_radius="true"
       only_selected="false"
       hide_knots="false" /><inkscape:path-effect
       effect="fillet_chamfer"
       id="path-effect12"
       is_visible="true"
       lpeversion="1"
       nodesatellites_param="F,0,0,1,0,0,0,1 @ F,0,0,1,0,0,0,1 @ F,0,0,1,0,0,0,1 @ F,0,0,1,0,0,0,1 @ F,0,0,1,0,0,0,1 @ F,0,0,1,0,0,0,1 @ F,0,0,1,0,0.61919214,0,1 @ F,0,0,1,0,0.53312822,0,1"
       radius="0"
       unit="px"
       method="auto"
       mode="F"
       chamfer_steps="1"
       flexible="false"
       use_knot_distance="true"
       apply_no_radius="true"
       apply_with_radius="true"
       only_selected="false"
       hide_knots="false" /><inkscape:path-effect
       effect="fillet_chamfer"
       id="path-effect11"
       is_visible="true"
       lpeversion="1"
       nodesatellites_param="F,0,0,1,0,1.1065417,0,1 @ F,0,0,1,0,0,0,1 @ F,0,0,1,0,1.0252178,0,1 @ F,0,0,1,0,0.95523108,0,1"
       radius="0"
       unit="px"
       method="auto"
       mode="F"
       chamfer_steps="1"
       flexible="false"
       use_knot_distance="true"
       apply_no_radius="true"
       apply_with_radius="true"
       only_selected="false"
       hide_knots="false" /><inkscape:path-effect
       effect="fillet_chamfer"
       id="path-effect10"
       is_visible="true"
       lpeversion="1"
       nodesatellites_param="F,0,0,1,0,1.1390712,0,1 @ F,0,0,1,0,0,0,1 @ F,0,0,1,0,1.0740121,0,1 @ F,0,0,1,0,0.86141968,0,1"
       radius="0"
       unit="px"
       method="auto"
       mode="F"
       chamfer_steps="1"
       flexible="false"
       use_knot_distance="true"
       apply_no_radius="true"
       apply_with_radius="true"
       only_selected="false"
       hide_knots="false" /><inkscape:path-effect
       effect="fillet_chamfer"
       id="path-effect9"
       is_visible="true"
       lpeversion="1"
       nodesatellites_param="F,0,0,1,0,1.1065417,0,1 @ F,0,0,1,0,0,0,1 @ F,0,0,1,0,1.0577473,0,1 @ F,0,0,1,0,0.97149585,0,1"
       radius="0"
       unit="px"
       method="auto"
       mode="F"
       chamfer_steps="1"
       flexible="false"
       use_knot_distance="true"
       apply_no_radius="true"
       apply_with_radius="true"
       only_selected="false"
       hide_knots="false" /><inkscape:path-effect
       effect="fillet_chamfer"
       id="path-effect8"
       is_visible="true"
       lpeversion="1"
       nodesatellites_param="F,0,0,1,0,1.2691894,0,1 @ F,0,0,1,0,0,0,1 @ F,0,0,1,0,1.0902769,0,1 @ F,0,0,1,0,0.87390722,0,1"
       radius="0"
       unit="px"
       method="auto"
       mode="F"
       chamfer_steps="1"
       flexible="false"
       use_knot_distance="true"
       apply_no_radius="true"
       apply_with_radius="true"
       only_selected="false"
       hide_knots="false" /><inkscape:path-effect
       effect="fillet_chamfer"
       id="path-effect7"
       is_visible="true"
       lpeversion="1"
       nodesatellites_param="F,0,0,1,0,0,0,1 @ F,0,0,1,0,0,0,1 @ F,0,0,1,0,0,0,1 @ F,0,0,1,0,0,0,1 @ F,0,0,1,0,0.28497839,0,1 @ F,0,0,1,0,0,0,1 @ F,0,0,1,0,0,0,1 @ F,0,0,1,0,0.23002928,0,1 @ F,0,0,1,0,0,0,1 @ F,0,0,1,0,0,0,1 @ F,0,0,1,0,0,0,1 @ F,0,0,1,0,0,0,1"
       radius="0"
       unit="px"
       method="auto"
       mode="F"
       chamfer_steps="1"
       flexible="false"
       use_knot_distance="true"
       apply_no_radius="true"
       apply_with_radius="true"
       only_selected="false"
       hide_knots="false" /><linearGradient
       id="swatch4"
       inkscape:swatch="solid"><stop
         style="stop-color:#000000;stop-opacity:1;"
         offset="0"
         id="stop4" /></linearGradient><inkscape:path-effect
       effect="fillet_chamfer"
       id="path-effect7-3"
       is_visible="true"
       lpeversion="1"
       nodesatellites_param="F,0,0,1,0,0,0,1 @ F,0,0,1,0,0,0,1 @ F,0,0,1,0,0,0,1 @ F,0,0,1,0,0,0,1 @ F,0,0,1,0,0.28497839,0,1 @ F,0,0,1,0,0,0,1 @ F,0,0,1,0,0,0,1 @ F,0,0,1,0,0.23002928,0,1 @ F,0,0,1,0,0,0,1 @ F,0,0,1,0,0,0,1 @ F,0,0,1,0,0,0,1 @ F,0,0,1,0,0,0,1"
       radius="0"
       unit="px"
       method="auto"
       mode="F"
       chamfer_steps="1"
       flexible="false"
       use_knot_distance="true"
       apply_no_radius="true"
       apply_with_radius="true"
       only_selected="false"
       hide_knots="false" /><inkscape:path-effect
       effect="fillet_chamfer"
       id="path-effect12-1"
       is_visible="true"
       lpeversion="1"
       nodesatellites_param="F,0,0,1,0,0,0,1 @ F,0,0,1,0,0,0,1 @ F,0,0,1,0,0,0,1 @ F,0,0,1,0,0,0,1 @ F,0,0,1,0,0,0,1 @ F,0,0,1,0,0,0,1 @ F,0,0,1,0,0.61919214,0,1 @ F,0,0,1,0,0.53312822,0,1"
       radius="0"
       unit="px"
       method="auto"
       mode="F"
       chamfer_steps="1"
       flexible="false"
       use_knot_distance="true"
       apply_no_radius="true"
       apply_with_radius="true"
       only_selected="false"
       hide_knots="false" /></defs><g
     inkscape:label="Capa 1"
     inkscape:groupmode="layer"
     id="layer1"><path
       id="path17"
       style="opacity:1;fill:#9e9e9e;fill-opacity:0.740977;fill-rule:evenodd;stroke-width:3.0414;stroke-dasharray:none"
       d="m 58.358195,58.355611 c -0.61101,8.3e-5 -1.10631,0.495383 -1.106392,1.106393 v 6.840409 c 1.39e-4,0.527363 0.427617,0.954841 0.95498,0.95498 h 6.645072 c 0.566246,2.4e-5 1.025284,-0.459014 1.025261,-1.02526 v -5.330832 a 1.8054231,1.8054231 71.069962 0 0 -0.38002,-1.108052 l -0.790363,-1.016727 a 1.0896957,1.0896957 26.069962 0 0 -0.860328,-0.420911 z"
       inkscape:original-d="m 58.358195,58.355611 a 1.1065417,1.1065417 0 0 0 -1.106392,1.106393 v 6.840409 a 0.95523108,0.95523108 0 0 0 0.95498,0.95498 h 6.645072 a 1.0252178,1.0252178 0 0 0 1.025261,-1.02526 v -5.950024 l -1.497583,-1.926498 z"
       inkscape:path-effect="#path-effect18"
       transform="matrix(1.3151822,0,0,1.3151822,-19.404021,-19.795491)" /><rect
       style="fill:#13c172;fill-opacity:1;fill-rule:evenodd;stroke:none;stroke-width:0.264583;stroke-opacity:1"
       id="rect4"
       width="100"
       height="100"
       x="-3.5527137e-15"
       y="-3.5527137e-15"
       ry="9.0772219" /><g
       id="g57"
       style="fill:#ffffff;fill-opacity:1;stroke:none;stroke-width:0.595458;stroke-opacity:0.40552"
       transform="matrix(1.6793781,0,0,1.6793781,-33.968985,-28.069825)"><path
         id="path55"
         style="baseline-shift:baseline;display:inline;overflow:visible;opacity:1;vector-effect:none;fill:#ffffff;fill-opacity:1;fill-rule:evenodd;stroke:none;stroke-width:0.356662;stroke-opacity:0.40552;enable-background:accumulate;stop-color:#000000;stop-opacity:1"
         d="m 50.000049,26.640751 c -12.87683,0 -23.359298,10.482468 -23.359298,23.359298 0,12.87683 10.482468,23.359298 23.359298,23.359298 4.75972,0 9.192158,-1.432165 12.889136,-3.888135 h -5.912301 c -0.594661,-1.54e-4 -1.086128,-0.432523 -1.166854,-0.994255 -1.833062,0.573348 -3.784537,0.882634 -5.809981,0.882634 -10.715069,0 -19.359542,-8.644473 -19.359542,-19.359542 0,-10.715069 8.644473,-19.359542 19.359542,-19.359542 10.715069,0 19.359542,8.644473 19.359542,19.359542 0,3.956746 -1.179018,7.630846 -3.205489,10.691854 a 2.2285022,2.1868807 0 0 1 0.290938,1.080037 v 4.799707 c 4.26756,-4.235191 6.914307,-10.100976 6.914307,-16.571598 0,-12.87683 -10.482468,-23.359298 -23.359298,-23.359298 z" /><rect
         style="fill:#ffffff;fill-opacity:1;fill-rule:evenodd;stroke:none;stroke-width:0.380498;stroke-dasharray:none;stroke-opacity:0.40552"
         id="rect5"
         width="6.4749546"
         height="3.701576"
         x="66.682961"
         y="-23.975332"
         ry="0.60409456"
         transform="rotate(41.477989)"
         inkscape:transform-center-x="0.080514899"
         inkscape:transform-center-y="-0.17928058"
         rx="0.60409456" /><path
         id="rect6"
         style="opacity:1;fill:#ffffff;fill-opacity:1;fill-rule:evenodd;stroke:none;stroke-width:2.38183;stroke-dasharray:none;stroke-opacity:0.40552"
         d="m 45.543473,19.61534 c -0.810961,0 -1.463993,0.653032 -1.463993,1.463993 v 1.756482 c 0,0.810962 0.653032,1.463994 1.463993,1.463994 h 1.32526 a 0.28497839,0.28497839 45 0 1 0.284978,0.284978 v 2.219778 h 5.692676 v -2.274727 a 0.23002928,0.23002928 135 0 1 0.230029,-0.230029 h 1.380208 c 0.810962,0 1.463994,-0.653032 1.463994,-1.463994 v -1.756482 c 0,-0.810961 -0.653032,-1.463993 -1.463994,-1.463993 z"
         sodipodi:nodetypes="ssssccccsssss"
         inkscape:path-effect="#path-effect7"
         inkscape:original-d="m 45.543473,19.61534 c -0.810961,0 -1.463993,0.653032 -1.463993,1.463993 v 1.756482 c 0,0.810962 0.653032,1.463994 1.463993,1.463994 h 1.610238 v 2.504756 h 5.692676 v -2.504756 h 1.610237 c 0.810962,0 1.463994,-0.653032 1.463994,-1.463994 v -1.756482 c 0,-0.810961 -0.653032,-1.463993 -1.463994,-1.463993 z" /><path
         id="path7"
         style="opacity:1;fill:#ffffff;fill-opacity:1;fill-rule:evenodd;stroke:none;stroke-width:2.38183;stroke-opacity:0.40552"
         d="m 50.000049,33.315796 a 16.683982,16.683982 0 0 0 -16.684253,16.684253 16.683982,16.683982 0 0 0 16.684253,16.683736 16.683982,16.683982 0 0 0 5.798096,-1.03973 v -5.615161 c 1.01e-4,-0.740106 0.611615,-1.340386 1.365808,-1.340487 h 6.774263 a 1.3450527,1.3199313 0 0 1 0.286288,0.03049 16.683982,16.683982 0 0 0 2.459281,-8.718847 16.683982,16.683982 0 0 0 -16.683736,-16.684254 z m -2.190564,13.387813 a 0.94769205,0.94769205 0 0 1 0.506946,0.127641 l 3.946529,2.289266 a 0.94769199,0.94769199 0 0 1 -0.0036,1.64176 l -3.95583,2.27273 A 0.94769232,0.94769232 0 0 1 46.883443,52.2118 l 0.0098,-4.563029 a 0.94769205,0.94769205 0 0 1 0.916223,-0.945162 z m 10.321334,0.230477 h 3.468522 c 0.70036,0 1.264005,0.508951 1.264005,1.141532 v 3.712952 c 0,0.632582 -0.563645,1.142049 -1.264005,1.142049 h -3.468522 c -0.700361,0 -1.264006,-0.509467 -1.264006,-1.142049 v -3.712952 c 0,-0.632581 0.563645,-1.141532 1.264006,-1.141532 z m -19.731612,0.05943 c 0.489007,0 0.882633,0.509468 0.882633,1.142049 v 3.593062 c 0,0.632582 -0.393626,1.14205 -0.882633,1.14205 -0.489008,0 -0.882634,-0.509468 -0.882634,-1.14205 v -3.593062 c 0,-0.632581 0.393626,-1.142049 0.882634,-1.142049 z m 3.470072,0 c 0.489007,0 0.882633,0.509468 0.882633,1.142049 v 3.593062 c 0,0.632582 -0.393626,1.14205 -0.882633,1.14205 -0.489007,0 -0.882633,-0.509468 -0.882633,-1.14205 v -3.593062 c 0,-0.632581 0.393626,-1.142049 0.882633,-1.142049 z" /><path
         id="rect8"
         style="opacity:1;fill:#ffffff;fill-opacity:1;fill-rule:evenodd;stroke:none;stroke-width:2.38183;stroke-dasharray:none;stroke-opacity:0.40552"
         d="m 60.675539,59.695803 v 1.403029 c 0,0.25138 0.206033,0.453566 0.462197,0.453566 h 0.610103 c 0.256163,0 0.462638,-0.202186 0.462638,-0.453566 v -1.403029 z m 2.432482,0 v 1.825494 c 0,0.319174 -0.261525,0.576244 -0.586772,0.576244 h -4.099037 c -0.325246,0 -0.587651,-0.25707 -0.587651,-0.576244 v -1.823334 c -0.58133,0.03487 -1.041847,0.508033 -1.041927,1.087261 v 6.737827 c 1.38e-4,0.519462 0.429383,0.94112 0.958731,0.941257 h 6.670179 c 0.568377,2.3e-5 1.029185,-0.452178 1.029162,-1.00994 v -5.250995 a 1.81222,1.7783734 0 0 0 -0.381644,-1.091149 l -0.79366,-1.002165 a 1.0937981,1.0733694 0 0 0 -0.86365,-0.414256 z m -5.29547,3.954661 h 6.618237 c 0.26063,0 0.470122,0.206011 0.470122,0.461773 v 3.322261 c 0,0.255762 -0.209492,0.461773 -0.470122,0.461773 h -6.618237 c -0.26063,0 -0.470562,-0.206011 -0.470562,-0.461773 v -3.322261 c 0,-0.255762 0.209932,-0.461773 0.470562,-0.461773 z" /></g><g
       id="g22"
       transform="matrix(0.69822221,0,0,0.69822221,12.417374,15.021107)"
       style="stroke-width:1.43221" /><g
       id="g55"
       inkscape:label="copia"
       style="display:none"
       sodipodi:insensitive="true"><path
         id="path35"
         style="opacity:1;fill:#9e9e9e;fill-opacity:0.740977;fill-rule:evenodd;stroke-width:3.0414;stroke-dasharray:none"
         d="m 58.358195,58.355611 c -0.61101,8.3e-5 -1.10631,0.495383 -1.106392,1.106393 v 6.840409 c 1.39e-4,0.527363 0.427617,0.954841 0.95498,0.95498 h 6.645072 c 0.566246,2.4e-5 1.025284,-0.459014 1.025261,-1.02526 v -5.330832 a 1.8054231,1.8054231 71.069962 0 0 -0.38002,-1.108052 l -0.790363,-1.016727 a 1.0896957,1.0896957 26.069962 0 0 -0.860328,-0.420911 z"
         inkscape:original-d="m 58.358195,58.355611 a 1.1065417,1.1065417 0 0 0 -1.106392,1.106393 v 6.840409 a 0.95523108,0.95523108 0 0 0 0.95498,0.95498 h 6.645072 a 1.0252178,1.0252178 0 0 0 1.025261,-1.02526 v -5.950024 l -1.497583,-1.926498 z"
         inkscape:path-effect="#path-effect47"
         transform="matrix(1.3151822,0,0,1.3151822,-19.404021,-19.795491)" /><g
         id="g37"
         style="opacity:1;fill:none;stroke:#d7d7d7;stroke-width:3.84926;stroke-dasharray:none;stroke-opacity:0.40552"
         transform="matrix(1.0391573,0,0,1.0391659,-3.2740632,-1.1109285)"><path
           style="baseline-shift:baseline;display:inline;overflow:visible;fill:none;fill-rule:evenodd;stroke:#d7d7d7;stroke-width:3.84926;stroke-dasharray:none;stroke-opacity:0.40552;enable-background:accumulate;stop-color:#000000;stop-opacity:1"
           d="M 71.825224,49.184666 A 20.558668,20.558668 0 0 1 51.266556,69.743334 20.558668,20.558668 0 0 1 30.707888,49.184666 20.558668,20.558668 0 0 1 51.266556,28.625998 20.558668,20.558668 0 0 1 71.825224,49.184666 Z"
           id="path36" /><path
           style="baseline-shift:baseline;display:inline;overflow:visible;fill:none;fill-rule:evenodd;stroke:#d7d7d7;stroke-width:3.84926;stroke-dasharray:none;stroke-opacity:0.40552;enable-background:accumulate;stop-color:#000000;stop-opacity:1"
           d="m 51.265625,28.494141 c -11.425735,0 -20.689453,9.265671 -20.689453,20.691406 0,11.425734 9.263718,20.689453 20.689453,20.689453 11.425735,0 20.691406,-9.263719 20.691406,-20.689453 0,-11.425735 -9.265671,-20.691406 -20.691406,-20.691406 z m 0,0.263671 c 11.282743,0 20.427734,9.144992 20.427734,20.427735 0,11.282743 -9.144991,20.425781 -20.427734,20.425781 -11.282743,0 -20.425781,-9.143038 -20.425781,-20.425781 0,-11.282743 9.143038,-20.427735 20.425781,-20.427735 z"
           id="path37" /></g><rect
         style="fill:#000000;fill-opacity:0.740977;fill-rule:evenodd;stroke:none;stroke-width:0.639;stroke-dasharray:none;stroke-opacity:1"
         id="rect37"
         width="6.4749546"
         height="3.701576"
         x="66.682961"
         y="-23.975332"
         ry="1.0145031"
         transform="rotate(41.477989)"
         inkscape:transform-center-x="0.080514899"
         inkscape:transform-center-y="-0.17928058" /><path
         id="path38"
         style="opacity:1;fill:#000000;fill-opacity:0.740977;fill-rule:evenodd;stroke:none;stroke-width:4;stroke-dasharray:none;stroke-opacity:1"
         d="m 45.543473,19.61534 c -0.810961,0 -1.463993,0.653032 -1.463993,1.463993 v 1.756482 c 0,0.810962 0.653032,1.463994 1.463993,1.463994 h 1.32526 a 0.28497839,0.28497839 45 0 1 0.284978,0.284978 v 2.219778 h 5.692676 v -2.274727 a 0.23002928,0.23002928 135 0 1 0.230029,-0.230029 h 1.380208 c 0.810962,0 1.463994,-0.653032 1.463994,-1.463994 v -1.756482 c 0,-0.810961 -0.653032,-1.463993 -1.463994,-1.463993 z"
         sodipodi:nodetypes="ssssccccsssss"
         inkscape:path-effect="#path-effect49"
         inkscape:original-d="m 45.543473,19.61534 c -0.810961,0 -1.463993,0.653032 -1.463993,1.463993 v 1.756482 c 0,0.810962 0.653032,1.463994 1.463993,1.463994 h 1.610238 v 2.504756 h 5.692676 v -2.504756 h 1.610237 c 0.810962,0 1.463994,-0.653032 1.463994,-1.463994 v -1.756482 c 0,-0.810961 -0.653032,-1.463993 -1.463994,-1.463993 z" /><path
         id="path39"
         style="opacity:1;fill:#ffffff;fill-opacity:0.685775;fill-rule:evenodd;stroke:none;stroke-width:4;stroke-opacity:1"
         d="M 66.683982,50 A 16.683982,16.683982 0 0 1 50,66.683982 16.683982,16.683982 0 0 1 33.316018,50 16.683982,16.683982 0 0 1 50,33.316018 16.683982,16.683982 0 0 1 66.683982,50 Z" /><path
         id="path40"
         style="opacity:1;fill:#000000;fill-opacity:0.571125;fill-rule:evenodd;stroke-width:3.24061;stroke-dasharray:none"
         d="m 58.358195,58.355611 c -0.61101,8.3e-5 -1.10631,0.495383 -1.106392,1.106393 v 6.840409 c 1.39e-4,0.527363 0.427617,0.954841 0.95498,0.95498 h 6.645072 c 0.566246,2.4e-5 1.025284,-0.459014 1.025261,-1.02526 v -5.330832 a 1.8054231,1.8054231 71.069962 0 0 -0.38002,-1.108052 l -0.790363,-1.016727 a 1.0896957,1.0896957 26.069962 0 0 -0.860328,-0.420911 z"
         inkscape:original-d="m 58.358195,58.355611 a 1.1065417,1.1065417 0 0 0 -1.106392,1.106393 v 6.840409 a 0.95523108,0.95523108 0 0 0 0.95498,0.95498 h 6.645072 a 1.0252178,1.0252178 0 0 0 1.025261,-1.02526 v -5.950024 l -1.497583,-1.926498 z"
         inkscape:path-effect="#path-effect51"
         transform="matrix(1.2343379,0,0,1.2343379,-14.426885,-14.731653)" /><path
         id="path41"
         style="opacity:1;fill:#ffffff;fill-opacity:0.740977;fill-rule:evenodd;stroke-width:4.36461;stroke-dasharray:none"
         d="m 58.358195,58.355611 c -0.61101,8.3e-5 -1.10631,0.495383 -1.106392,1.106393 v 6.840409 c 1.39e-4,0.527363 0.427617,0.954841 0.95498,0.95498 h 6.645072 c 0.566246,2.4e-5 1.025284,-0.459014 1.025261,-1.02526 v -5.330832 a 1.8054231,1.8054231 71.069962 0 0 -0.38002,-1.108052 l -0.790363,-1.016727 a 1.0896957,1.0896957 26.069962 0 0 -0.860328,-0.420911 z"
         inkscape:original-d="m 58.358195,58.355611 a 1.1065417,1.1065417 0 0 0 -1.106392,1.106393 v 6.840409 a 0.95523108,0.95523108 0 0 0 0.95498,0.95498 h 6.645072 a 1.0252178,1.0252178 0 0 0 1.025261,-1.02526 v -5.950024 l -1.497583,-1.926498 z"
         inkscape:path-effect="#path-effect53"
         transform="matrix(0.91646214,0,0,0.91646214,5.142963,5.23301)" /><rect
         style="fill:#292929;fill-opacity:0.740977;fill-rule:evenodd;stroke:none;stroke-width:4;stroke-dasharray:none;stroke-opacity:0.579618"
         id="rect41"
         width="6.9015002"
         height="3.9501038"
         x="58.113708"
         y="62.393299"
         ry="0.55229092"
         rx="0.55229092" /><rect
         style="fill:#292929;fill-opacity:0.740977;fill-rule:evenodd;stroke:none;stroke-width:4;stroke-dasharray:none;stroke-opacity:0.579618"
         id="rect42"
         width="4.8146534"
         height="3.9501038"
         x="58.563473"
         y="56.998058"
         ry="0.53602713"
         rx="0.53602713" /><rect
         style="fill:#ffffff;fill-opacity:0.740977;fill-rule:evenodd;stroke:none;stroke-width:4;stroke-dasharray:none;stroke-opacity:0.579618"
         id="rect43"
         width="1.4011687"
         height="3.1004589"
         x="61.157124"
         y="57.340904"
         ry="0.42217377"
         rx="0.42217377" /><path
         id="path43"
         style="opacity:1;fill:#323232;fill-opacity:0.740977;fill-rule:evenodd;stroke-width:4.87373;stroke-opacity:0.579618"
         inkscape:transform-center-x="0.14028367"
         inkscape:transform-center-y="0.31031859"
         d="m 59.352517,58.917477 4.815853,2.777134 a 1.1547004,1.1547004 89.970542 0 1 0.001,1.999999 l -4.812995,2.782084 a 1.1547008,1.1547008 29.97054 0 1 -1.732565,-0.99911 l -0.0029,-5.559216 a 1.1547004,1.1547004 149.97054 0 1 1.731536,-1.000891 z"
         inkscape:path-effect="#path-effect55"
         inkscape:original-d="m 57.619952,57.918368 8.280983,4.775352 -8.276067,4.783864 z"
         transform="matrix(0.82072271,0.00212095,-0.00212095,0.82072271,-0.06118195,-1.6496129)" /><g
         id="g45"
         transform="matrix(0.69822221,0,0,0.69822221,11.435158,15.088889)"
         style="stroke-width:1.43221"><rect
           style="opacity:1;fill:#2f2f2f;fill-opacity:0.685775;fill-rule:evenodd;stroke:none;stroke-width:5.72883;stroke-dasharray:none;stroke-opacity:0.40552"
           id="rect44"
           width="2.5283773"
           height="8.4170494"
           x="35.947464"
           y="45.791473"
           rx="1.810582"
           ry="1.6353592" /><rect
           style="opacity:1;fill:#2f2f2f;fill-opacity:0.685775;fill-rule:evenodd;stroke:none;stroke-width:5.72883;stroke-dasharray:none;stroke-opacity:0.40552"
           id="rect45"
           width="2.5283773"
           height="8.4170494"
           x="40.917007"
           y="45.791473"
           rx="1.810582"
           ry="1.6353592" /></g><rect
         style="opacity:1;fill:#2f2f2f;fill-opacity:0.685775;fill-rule:evenodd;stroke:none;stroke-width:4;stroke-dasharray:none;stroke-opacity:0.40552"
         id="rect46"
         width="5.9966426"
         height="5.9966426"
         x="57.661777"
         y="47.001678"
         rx="1.2641885"
         ry="1.1418442" /></g></g></svg>
